{
  "title": "Younger.S01E03.WEBRip.x264.mp4",
  "uid": 11804399,
  "size": 127310202,
  "categoryP": "video",
  "categoryS": "tv_shows",
  "magnet": "?xt=urn:btih:939361c1e5a4063045d89283a44c5265ad666eea&amp;dn=Younger.S01E03.WEBRip.x264.mp4&amp;tr=udp%3A%2F%2Ftracker.openbittorrent.com%3A80&amp;tr=udp%3A%2F%2Fopen.demonii.com%3A1337&amp;tr=udp%3A%2F%2Ftracker.coppersurfer.tk%3A6969&amp;tr=udp%3A%2F%2Fexodus.desync.com%3A6969",
  "seeders": 119,
  "leechers": 2,
  "uploader": null,
  "files": 1,
  "time": 1428519427,
  "description": "Ripped from TVLAND on-demand service!\n\nTechnical Data:\n\nVideo\nID : 1\nFormat : AVC\nFormat/Info : Advanced Video Codec\nFormat profile : &lt;a class=&quot;__cf_email__&quot; href=&quot;/cdn-cgi/l/email-protection&quot; data-cfemail=&quot;e2af838b8ca2aed1ccd2&quot;&gt;[email&amp;#160;protected]&lt;/a&gt;&lt;script cf-hash='f9e31' type=&quot;text/javascript&quot;&gt;\n/* &lt;![CDATA[ */!function(){try{var t=&quot;currentScript&quot;in document?document.currentScript:function(){for(var t=document.getElementsByTagName(&quot;script&quot;),e=t.length;e--;)if(t[e].getAttribute(&quot;cf-hash&quot;))return t[e]}();if(t&amp;&amp;t.previousSibling){var e,r,n,i,c=t.previousSibling,a=c.getAttribute(&quot;data-cfemail&quot;);if(a){for(e=&quot;&quot;,r=parseInt(a.substr(0,2),16),n=2;a.length-n;n+=2)i=parseInt(a.substr(n,2),16)^r,e+=String.fromCharCode(i);e=document.createTextNode(e),c.parentNode.replaceChild(e,c)}}}catch(u){}}();/* ]]&gt; */&lt;/script&gt;\nFormat settings, CABAC : No\nFormat settings, ReFrames : 2 frames\nFormat settings, GOP : M=2, N=24\nCodec ID : avc1\nCodec ID/Info : Advanced Video Coding\nDuration : 20mn 48s\nBit rate : 701 Kbps\nWidth : 720 pixels\nHeight : 404 pixels\nDisplay aspect ratio : 16:9\nFrame rate mode : Constant\nFrame rate : 30.000 fps\nColor space : YUV\nChroma subsampling : 4:2:0\nBit depth : 8 bits\nScan type : Progressive\nBits/(Pixel*Frame) : 0.080\nStream size : 104 MiB (86%)\nLanguage : English\nEncoded date : UTC 2015-04-08 15:34:57\nTagged date : UTC 2015-04-08 15:48:58\nColor primaries : BT.601 NTSC\nTransfer characteristics : BT.709\nMatrix coefficients : BT.601\n\nAudio\nID : 2\nFormat : AAC\nFormat/Info : Advanced Audio Codec\nFormat profile : LC\nCodec ID : 40\nDuration : 20mn 48s\nSource duration : 20mn 48s\nBit rate mode : Constant\nBit rate : 112 Kbps\nChannel(s) : 2 channels\nChannel positions : Front: L R\nSampling rate : 48.0 KHz\nCompression mode : Lossy\nStream size : 16.2 MiB (13%)\nSource stream size : 16.2 MiB (13%)\nLanguage : English\nEncoded date : UTC 2015-04-08 15:34:57\nTagged date : UTC 2015-04-08 15:48:58",
  "parsed": {
    "xt": "urn:btih:939361c1e5a4063045d89283a44c5265ad666eea",
    "dn": "Younger.S01E03.WEBRip.x264.mp4",
    "tr": [
      "udp://exodus.desync.com:6969",
      "udp://open.demonii.com:1337",
      "udp://tracker.coppersurfer.tk:6969",
      "udp://tracker.openbittorrent.com:80"
    ],
    "infoHash": "939361c1e5a4063045d89283a44c5265ad666eea",
    "infoHashBuffer": {
      "type": "Buffer",
      "data": [
        147,
        147,
        97,
        193,
        229,
        164,
        6,
        48,
        69,
        216,
        146,
        131,
        164,
        76,
        82,
        101,
        173,
        102,
        110,
        234
      ]
    },
    "name": "Younger.S01E03.WEBRip.x264.mp4",
    "announce": [
      "udp://exodus.desync.com:6969",
      "udp://open.demonii.com:1337",
      "udp://tracker.coppersurfer.tk:6969",
      "udp://tracker.openbittorrent.com:80"
    ],
    "urlList": []
  },
  "previous": 39,
  "peers": 18,
  "last_updated": "2016-12-27T07:17:48.310Z"
}